<svg width="41" height="40" viewBox="0 0 41 40" fill="none" xmlns="http://www.w3.org/2000/svg">
<path d="M29.2502 15.2085C29.2502 10.2915 25.3309 6.30225 20.5002 6.30225C15.6694 6.30225 11.7502 10.2915 11.7502 15.2085C11.7502 15.9754 12.0236 17.1629 12.6798 18.7463C13.3179 20.2801 14.2233 21.9748 15.2623 23.688C16.9941 26.5454 18.9993 29.3039 20.5002 31.2707C22.0071 29.3039 24.0123 26.5454 25.738 23.688C26.7771 21.9748 27.6825 20.2801 28.3205 18.7463C28.9767 17.1629 29.2502 15.9754 29.2502 15.2085ZM32.1668 15.2085C32.1668 20.6141 25.0575 30.2378 21.9403 34.2085C21.1929 35.1548 19.8075 35.1548 19.0601 34.2085C15.9429 30.2378 8.8335 20.6141 8.8335 15.2085C8.8335 8.65251 14.0592 3.3335 20.5002 3.3335C26.9411 3.3335 32.1668 8.65251 32.1668 15.2085ZM22.4446 15.2085C22.4446 14.6836 22.2397 14.1802 21.8751 13.809C21.5104 13.4378 21.0159 13.2293 20.5002 13.2293C19.9845 13.2293 19.4899 13.4378 19.1252 13.809C18.7606 14.1802 18.5557 14.6836 18.5557 15.2085C18.5557 15.7334 18.7606 16.2368 19.1252 16.608C19.4899 16.9791 19.9845 17.1877 20.5002 17.1877C21.0159 17.1877 21.5104 16.9791 21.8751 16.608C22.2397 16.2368 22.4446 15.7334 22.4446 15.2085ZM15.6391 15.2085C15.6391 13.8962 16.1512 12.6377 17.0628 11.7098C17.9745 10.7819 19.2109 10.2606 20.5002 10.2606C21.7894 10.2606 23.0259 10.7819 23.9375 11.7098C24.8491 12.6377 25.3613 13.8962 25.3613 15.2085C25.3613 16.5208 24.8491 17.7793 23.9375 18.7072C23.0259 19.6351 21.7894 20.1564 20.5002 20.1564C19.2109 20.1564 17.9745 19.6351 17.0628 18.7072C16.1512 17.7793 15.6391 16.5208 15.6391 15.2085Z" fill="#D09E5F"/>
</svg>
