<svg width="40" height="40" viewBox="0 0 40 40" fill="none" xmlns="http://www.w3.org/2000/svg">
<g clip-path="url(#clip0_617_1566)">
<path d="M20.3597 23.5784L22.7707 21.5654L24.283 23.3767L23.0762 24.3842C22.745 24.6607 22.7007 25.1534 22.9772 25.4846L25.4909 28.4952C25.7673 28.8264 26.2601 28.8706 26.5912 28.5942L36.8275 20.0479C37.1587 19.7713 37.2031 19.2787 36.9266 18.9475L34.4129 15.9368C34.1364 15.6057 33.6437 15.5615 33.3125 15.8378L32.1058 16.8453L22.5498 5.39991L23.7566 4.39236C24.0875 4.11612 24.132 3.62325 23.8556 3.29201L21.3419 0.281247C21.0654 -0.0499141 20.5727 -0.0942095 20.2415 0.182266L10.0052 8.7287C9.67431 9.00494 9.6297 9.49789 9.90625 9.82906L12.4199 12.8397C12.6959 13.1704 13.1884 13.2157 13.5203 12.9387L14.727 11.9312L16.2393 13.7424L13.8283 15.7554C13.4974 16.0317 13.4528 16.5246 13.7293 16.8558L14.7122 18.033L1.50427 28.0258C-0.212865 29.315 -0.511371 31.7826 0.87538 33.4436C2.31713 35.1703 4.86314 35.1952 6.32809 33.7826L18.2875 22.3153L19.2594 23.4793C19.5354 23.8099 20.0279 23.8552 20.3597 23.5784ZM5.25195 32.6499C4.33284 33.497 2.88547 33.4131 2.07472 32.4422C1.26966 31.4779 1.43052 30.035 2.44462 29.2736L3.73341 28.2985L6.42629 31.5239L5.25195 32.6499ZM7.5568 30.4399L4.98095 27.3546L15.7147 19.2338L17.2837 21.1131L7.5568 30.4399ZM33.7141 17.5379L35.2264 19.3492L26.1895 26.8942L24.6772 25.0828C25.8033 24.1427 32.5881 18.4781 33.7141 17.5379ZM13.1186 11.2387L11.6063 9.42743L20.6432 1.88237L22.1555 3.69363C21.198 4.49314 13.9874 10.5133 13.1186 11.2387ZM21.3505 6.40128L30.9064 17.8467L25.4823 22.3753L15.9264 10.9299L21.3505 6.40128ZM16.4368 17.6609L15.4293 16.4542L17.2407 14.9419C18.2787 16.1852 21.2586 19.7542 21.7695 20.366L19.9581 21.8783C19.5907 21.4383 16.8041 18.1008 16.4368 17.6609Z" fill="#D09E5F"/>
<path d="M37.6469 34.6115V33.7177C37.6469 31.9946 36.2451 30.5928 34.522 30.5928H25.0899C23.3668 30.5928 21.965 31.9946 21.965 33.7177V34.6115C20.614 34.9559 19.6118 36.1829 19.6118 37.6397V39.2181C19.6118 39.6496 19.9616 39.9993 20.393 39.9993H39.2189C39.6504 39.9993 40.0001 39.6496 40.0001 39.2181V37.6397C40.0001 36.1829 38.998 34.9559 37.6469 34.6115ZM23.5275 33.7177C23.5275 32.8561 24.2284 32.1552 25.0899 32.1552H34.522C35.3836 32.1552 36.0845 32.8561 36.0845 33.7177V34.5148H23.5275V33.7177ZM38.4377 38.4369H21.1743V37.6397C21.1743 36.7782 21.8752 36.0773 22.7367 36.0773H36.8752C37.7368 36.0773 38.4377 36.7782 38.4377 37.6397V38.4369Z" fill="#D09E5F"/>
</g>
<defs>
<clipPath id="clip0_617_1566">
<rect width="40" height="40" fill="white"/>
</clipPath>
</defs>
</svg>
