<svg height="120" viewBox="0 0 180 120" width="180" xmlns="http://www.w3.org/2000/svg" xmlns:sketch="http://www.bohemiancoding.com/sketch/ns"><g id="Page-1" fill="none" fill-rule="evenodd"><g id="Flat" transform="translate(-540 -540)"><g id="Slice" transform="translate(180 180)"/><g id="round_rectangle_azerbaijan" transform="translate(540 540)"><path id="rounded" d="m0 80v20c.00000106 20 20 20 20 20h140s20 0 20-20v-20z" fill="#4eab53"/><path id="rounded" d="m0 20v20h180v-20c0-20-20-20-20-20h-140s-20 0-20 20z" fill="#2b98f0"/><path id="Path" d="m0 40h180v40h-180z" fill="#f1453d"/><path id="Oval-8" d="m92.4828518 77.3469124c-1.5071843.4256287-3.0953111.6530876-4.7356151.6530876-9.7636059 0-17.6785714-8.0588739-17.6785714-18 0-9.941126 7.9149655-18 17.6785714-18 1.640304 0 3.2284308.2274587 4.7356151.6530879-.1849056-.0068021-.3706039-.0102308-.5570437-.0102308-8.8760053 0-16.0714285 7.7710571-16.0714285 17.3571429s7.1954232 17.3571429 16.0714285 17.3571429c.1864398 0 .3721381-.0034284.5570437-.0102305 0 0-.1849056.0068021 0 0zm14.0595032-8.5275565-5.970129-2.8327482-2.2097278 6.227678-2.2184653-6.2245723-5.9661474 2.8411187 2.8327459-5.9701278-6.2276804-2.2097286 6.2245746-2.2184651-2.8411213-5.9661475 5.9701303 2.8327458 2.2097289-6.2276803 2.2184645 6.2245723 5.966148-2.841119-2.832746 5.9701304 6.227681 2.2097263-6.224573 2.2184651z" fill="#fff"/></g></g></g></svg>