<svg width="41" height="40" viewBox="0 0 41 40" fill="none" xmlns="http://www.w3.org/2000/svg">
<path d="M26.1924 0.597778H15.0759C14.8719 0.597778 14.6762 0.678822 14.532 0.823081C14.3877 0.96734 14.3067 1.163 14.3067 1.36701V5.56921H2.97481C2.87143 5.55975 2.76723 5.57315 2.66961 5.60846C2.57198 5.64378 2.48332 5.70013 2.40992 5.77354C2.33651 5.84695 2.28015 5.93561 2.24484 6.03323C2.20952 6.13086 2.19612 6.23506 2.20558 6.33844V33.2703C2.20558 33.4743 2.28662 33.67 2.43088 33.8142C2.57514 33.9585 2.7708 34.0395 2.97481 34.0395H20.0957C20.2997 34.0395 20.4954 33.9585 20.6396 33.8142C20.7839 33.67 20.8649 33.4743 20.8649 33.2703C20.8649 33.0663 20.7839 32.8706 20.6396 32.7264C20.4954 32.5821 20.2997 32.5011 20.0957 32.5011H3.74404V9.43294L8.13965 17.7406C8.20525 17.8643 8.30338 17.9678 8.42344 18.0398C8.5435 18.1118 8.68095 18.1497 8.82097 18.1494H15.977C16.1601 19.2524 16.7287 20.2545 17.5815 20.9775C18.4344 21.7004 19.5161 22.0972 20.6342 22.0972C21.7522 22.0972 22.8339 21.7004 23.6868 20.9775C24.5396 20.2545 25.1082 19.2524 25.2913 18.1494H32.4385C32.5786 18.1497 32.716 18.1118 32.8361 18.0398C32.9561 17.9678 33.0543 17.8643 33.1199 17.7406L37.5155 9.43294V23.8725C37.5155 24.0765 37.5965 24.2722 37.7408 24.4164C37.885 24.5607 38.0807 24.6417 38.2847 24.6417C38.4887 24.6417 38.6844 24.5607 38.8286 24.4164C38.9729 24.2722 39.0539 24.0765 39.0539 23.8725V6.34283C39.0551 6.14107 38.977 5.94691 38.8364 5.8022C38.6958 5.65749 38.504 5.57382 38.3023 5.56921H26.9616V1.36701C26.9616 1.163 26.8806 0.96734 26.7363 0.823081C26.5921 0.678822 26.3964 0.597778 26.1924 0.597778ZM15.8451 2.13624H25.4232V5.56921H15.8451V2.13624ZM20.632 20.567C19.9237 20.562 19.2371 20.3218 18.6802 19.8842C18.1232 19.4466 17.7275 18.8364 17.555 18.1494H23.7265C23.5547 18.8401 23.1566 19.4533 22.5958 19.8915C22.035 20.3296 21.3436 20.5674 20.632 20.567ZM37.01 7.11206L31.977 16.611H9.2913L4.25393 7.10767L37.01 7.11206Z" fill="#D09E5F"/>
<path d="M23.3968 33.5252V38.5846C23.3979 38.7882 23.4793 38.9832 23.6233 39.1272C23.7673 39.2712 23.9623 39.3526 24.166 39.3538H26.1924C26.3964 39.3538 26.592 39.2727 26.7363 39.1285C26.8805 38.9842 26.9616 38.7886 26.9616 38.5846C26.9616 38.3805 26.8805 38.1849 26.7363 38.0406C26.592 37.8964 26.3964 37.8153 26.1924 37.8153H24.9352V33.5252C24.9185 33.0379 25.0481 32.5568 25.3075 32.1439C25.5668 31.731 25.9439 31.4052 26.3902 31.2087C27.4488 32.1988 28.844 32.7496 30.2935 32.7496C31.7429 32.7496 33.1382 32.1988 34.1968 31.2087C35.555 31.9076 35.7264 32.8439 35.7264 33.512V37.8021H34.4913C34.2872 37.8021 34.0916 37.8832 33.9473 38.0274C33.8031 38.1717 33.722 38.3674 33.722 38.5714C33.722 38.7754 33.8031 38.971 33.9473 39.1153C34.0916 39.2596 34.2872 39.3406 34.4913 39.3406H36.4957C36.6997 39.3406 36.8953 39.2596 37.0396 39.1153C37.1838 38.971 37.2649 38.7754 37.2649 38.5714V33.5252C37.2768 32.8053 37.0898 32.0961 36.7245 31.4756C36.3592 30.8552 35.8298 30.3476 35.1946 30.0087C35.7406 29.1344 36.0427 28.1298 36.0695 27.0993C36.0963 26.0688 35.8468 25.0499 35.347 24.1484C34.8471 23.2468 34.1151 22.4955 33.2268 21.9724C32.3386 21.4492 31.3265 21.1733 30.2957 21.1733C29.2648 21.1733 28.2527 21.4492 27.3645 21.9724C26.4763 22.4955 25.7442 23.2468 25.2443 24.1484C24.7445 25.0499 24.495 26.0688 24.5218 27.0993C24.5486 28.1298 24.8507 29.1344 25.3968 30.0087C24.7778 30.3606 24.2653 30.8731 23.9133 31.492C23.5613 32.1109 23.3828 32.8133 23.3968 33.5252ZM30.2935 22.69C31.1389 22.6839 31.9671 22.9291 32.673 23.3943C33.379 23.8596 33.9308 24.5241 34.2586 25.3034C34.5863 26.0827 34.6753 26.9419 34.5141 27.7718C34.3529 28.6018 33.9488 29.3652 33.3531 29.9652C32.7575 30.5651 31.997 30.9747 31.1683 31.1419C30.3395 31.3091 29.4798 31.2264 28.6981 30.9043C27.9164 30.5822 27.248 30.0351 26.7776 29.3326C26.3072 28.63 26.0561 27.8036 26.0561 26.9582C26.0526 25.8305 26.4969 24.7475 27.2915 23.9472C28.086 23.1469 29.1657 22.6947 30.2935 22.69Z" fill="#D09E5F"/>
</svg>
