<svg width="41" height="40" viewBox="0 0 41 40" fill="none" xmlns="http://www.w3.org/2000/svg">
<g clip-path="url(#clip0_617_1561)">
<path d="M20.4997 19.4664C20.1687 19.4664 19.8663 19.2488 19.7598 18.936C19.6535 18.6238 19.7611 18.2656 20.0242 18.0656C20.2741 17.8756 20.6186 17.8538 20.8907 18.0099C21.1682 18.1691 21.3236 18.4967 21.27 18.8125C21.2068 19.1842 20.8782 19.4664 20.4997 19.4664Z" fill="#D09E5F"/>
<path d="M29.4393 34.5872H28.937V33.7726C28.937 32.0988 27.5752 30.737 25.9014 30.737H21.2812V22.2312C21.2812 21.7997 20.9313 21.45 20.4999 21.45C20.0685 21.45 19.7187 21.7997 19.7187 22.2312V30.737H15.0984C13.4245 30.737 12.0628 32.0988 12.0628 33.7726V34.5872H11.5605C9.88662 34.5872 8.5249 35.949 8.5249 37.6228V39.2188C8.5249 39.6503 8.87475 40 9.30615 40H31.6937C32.1251 40 32.4749 39.6503 32.4749 39.2188V37.6229C32.4749 35.949 31.1132 34.5872 29.4393 34.5872ZM13.6253 33.7726C13.6253 32.9603 14.2862 32.2995 15.0984 32.2995H25.9013C26.7136 32.2995 27.3744 32.9603 27.3744 33.7726V34.5872H13.6252V33.7726H13.6253ZM30.9124 38.4375H10.0874V37.6229C10.0874 36.8107 10.7483 36.1498 11.5605 36.1498H29.4393C30.2515 36.1498 30.9124 36.8107 30.9124 37.6229V38.4375Z" fill="#D09E5F"/>
<path d="M37.2143 21.3366C37.2143 21.3359 37.2143 21.3353 37.2143 21.3348C37.2141 21.3289 37.2139 21.3231 37.2136 21.3173C37.2135 21.3155 37.2134 21.3139 37.2134 21.3122C37.2131 21.3081 37.2129 21.3041 37.2126 21.3001C37.2123 21.2964 37.212 21.2928 37.2117 21.2891C37.2115 21.2865 37.2113 21.2839 37.211 21.2812C37.2014 21.1795 37.1723 21.0835 37.1274 20.997L32.0545 10.7567C33.2105 10.6053 34.3425 10.2329 35.3793 9.63961C35.7538 9.42531 35.8838 8.94797 35.6695 8.57351C35.4552 8.19891 34.9777 8.06922 34.6034 8.28344C32.3094 9.59617 29.4548 9.60344 27.1539 8.30234L22.229 5.51742C23.0134 4.96914 23.5274 4.05898 23.5274 3.03078C23.5274 1.35961 22.1692 0 20.4998 0C18.8305 0 17.4723 1.35961 17.4723 3.03086C17.4723 4.05906 17.9864 4.96922 18.7707 5.5175L13.8458 8.30242C11.5448 9.60344 8.69031 9.59617 6.39633 8.28352C6.0218 8.06945 5.54461 8.19906 5.33023 8.57359C5.11594 8.94805 5.24586 9.42539 5.62039 9.63969C6.65734 10.233 7.78914 10.6055 8.94516 10.7568L3.87227 20.9969C3.82742 21.0834 3.79836 21.1795 3.78867 21.2812C3.78844 21.2838 3.7882 21.2864 3.78797 21.2891C3.78766 21.2927 3.78734 21.2963 3.78711 21.3C3.7868 21.3041 3.78656 21.308 3.78633 21.3121C3.78625 21.3138 3.78617 21.3155 3.78609 21.3172C3.78578 21.323 3.78555 21.3288 3.78539 21.3347V21.3365C3.78523 21.3438 3.78516 21.351 3.78516 21.3583C3.78664 24.8677 6.63852 27.7223 10.1438 27.7223C13.6491 27.7223 16.5012 24.8677 16.5026 21.3583C16.5026 21.351 16.5025 21.3438 16.5023 21.3365C16.5023 21.3359 16.5023 21.3353 16.5023 21.3347C16.5022 21.3288 16.502 21.323 16.5016 21.3171C16.5016 21.3155 16.5015 21.3138 16.5014 21.3121C16.5012 21.308 16.5009 21.3039 16.5006 21.2998C16.5004 21.2963 16.5001 21.2928 16.4998 21.2893C16.4996 21.2866 16.4994 21.2838 16.4991 21.281C16.4895 21.1793 16.4604 21.0834 16.4156 20.9968L11.342 10.7553C12.4788 10.605 13.5922 10.2408 14.6149 9.66242L19.7186 6.77648V15.1677C19.7186 15.5991 20.0684 15.9489 20.4998 15.9489C20.9313 15.9489 21.2811 15.5991 21.2811 15.1677V6.77648L26.3848 9.6625C27.4077 10.2409 28.521 10.6051 29.6579 10.7553L24.5841 20.9969C24.5393 21.0834 24.5102 21.1795 24.5005 21.2811C24.5003 21.2838 24.5001 21.2866 24.4998 21.2894C24.4995 21.2929 24.4993 21.2964 24.4991 21.2999C24.4988 21.304 24.4985 21.3081 24.4983 21.3122C24.4982 21.3138 24.4981 21.3155 24.498 21.3172C24.4977 21.323 24.4975 21.3289 24.4973 21.3348V21.3366C24.4972 21.3438 24.4971 21.3511 24.4971 21.3584C24.4986 24.8678 27.3505 27.7224 30.8559 27.7224C34.3613 27.7224 37.2132 24.8678 37.2147 21.3584C37.2145 21.3511 37.2145 21.3438 37.2143 21.3366ZM10.1438 26.1599C7.76469 26.1599 5.78461 24.4157 5.41102 22.1369H14.8767C14.5031 24.4157 12.523 26.1599 10.1438 26.1599ZM5.82531 20.5744L10.1438 11.857L14.4624 20.5744H5.82531ZM20.4998 1.5625C21.3077 1.5625 21.9649 2.22117 21.9649 3.03086C21.9649 3.84047 21.3077 4.49914 20.4998 4.49914C19.692 4.49914 19.0348 3.84047 19.0348 3.03086C19.0348 2.22117 19.692 1.5625 20.4998 1.5625ZM30.8559 11.857L35.1744 20.5745H26.5372L30.8559 11.857ZM30.8559 26.1599C28.4767 26.1599 26.4966 24.4157 26.123 22.1369H35.5887C35.215 24.4157 33.235 26.1599 30.8559 26.1599Z" fill="#D09E5F"/>
</g>
<defs>
<clipPath id="clip0_617_1561">
<rect width="40" height="40" fill="white" transform="translate(0.5)"/>
</clipPath>
</defs>
</svg>
