<svg width="32" height="36" viewBox="0 0 32 36" fill="none" xmlns="http://www.w3.org/2000/svg">
<path d="M23.4498 7.31253H18.6272C18.1591 6.03334 17.0857 5.14288 15.8372 5.14288C14.5888 5.14288 13.5154 6.03334 13.0472 7.31253H8.2247C7.71846 7.31253 7.31119 7.79618 7.31119 8.39735C7.31119 8.99852 7.71846 9.48217 8.2247 9.48217H12.8531C13.0739 10.7749 13.877 11.8191 14.9237 12.2078V26.1161H8.2247C7.71846 26.1161 7.31119 26.5997 7.31119 27.2009C7.31119 27.8021 7.71846 28.2857 8.2247 28.2857H15.8372H23.4498C23.956 28.2857 24.3633 27.8021 24.3633 27.2009C24.3633 26.5997 23.956 26.1161 23.4498 26.1161H16.7507V12.2078C17.7975 11.8191 18.6006 10.7749 18.8214 9.48217H23.4498C23.956 9.48217 24.3633 8.99852 24.3633 8.39735C24.3633 7.79618 23.956 7.31253 23.4498 7.31253ZM23.1453 13.9932L25.901 19.6072H20.3895L23.1453 13.9932ZM18.3494 20.3801C18.7605 22.4096 20.7511 23.9465 23.1453 23.9465C25.5394 23.9465 27.5301 22.4096 27.9412 20.3801C28.0401 19.8829 27.9031 19.3721 27.6862 18.9292L24.0626 11.5524C23.8723 11.1636 23.5221 10.9286 23.1453 10.9286C22.7685 10.9286 22.4183 11.1682 22.228 11.5524L18.6044 18.9337C18.3874 19.3766 18.2504 19.8874 18.3494 20.3846V20.3801ZM5.72778 19.6072L8.48352 13.9932L11.2431 19.6072H5.72778ZM8.48352 23.9465C10.8777 23.9465 12.8683 22.4096 13.2794 20.3801C13.3784 19.8829 13.2414 19.3721 13.0244 18.9292L9.40084 11.5524C9.21052 11.1636 8.86034 10.9286 8.48352 10.9286C8.1067 10.9286 7.75653 11.1682 7.56621 11.5524L3.94645 18.9337C3.72949 19.3766 3.59247 19.8874 3.69143 20.3846C4.10251 22.4096 6.09319 23.9465 8.48352 23.9465ZM15.8372 7.31253C16.1603 7.31253 16.4701 7.46492 16.6985 7.73618C16.9269 8.00743 17.0552 8.37534 17.0552 8.75896C17.0552 9.14257 16.9269 9.51048 16.6985 9.78173C16.4701 10.053 16.1603 10.2054 15.8372 10.2054C15.5142 10.2054 15.2044 10.053 14.976 9.78173C14.7476 9.51048 14.6192 9.14257 14.6192 8.75896C14.6192 8.37534 14.7476 8.00743 14.976 7.73618C15.2044 7.46492 15.5142 7.31253 15.8372 7.31253Z" fill="#D09E5F"/>
</svg>
