<svg width="187" height="47" viewBox="0 0 187 47" fill="none" xmlns="http://www.w3.org/2000/svg">
<path d="M63.9411 0.986084C64.1822 0.986084 64.363 1.10936 64.4835 1.35591L70.751 16.2106L76.7774 1.35591C76.8377 1.10936 77.0185 0.986084 77.2595 0.986084H82.2615C82.5025 1.171 82.4423 1.72573 81.9602 1.72573C80.8151 1.72573 79.7906 2.1572 79.7906 3.6365V17.4433C79.7906 18.9842 80.8754 19.4157 81.9602 19.3541C82.382 19.3541 82.5025 19.8472 82.2615 20.0937H74.849C74.6079 19.9088 74.6682 19.3541 75.1503 19.3541C76.2953 19.3541 77.3198 18.9226 77.3198 17.4433V3.02012L70.3894 20.0937C70.2689 20.4635 69.606 20.4635 69.3649 19.9704L62.1332 2.83521L62.2537 14.6696C62.2537 16.8269 62.6153 18.183 63.0372 18.7993C63.5796 19.3541 63.8809 19.4773 64.4233 19.4773C64.8451 19.4773 64.9656 19.9704 64.7246 20.217H58.5174C58.2763 20.0321 58.3366 19.4773 58.8187 19.4773C59.3611 19.4773 59.7226 19.4157 60.2048 18.7993C60.7471 18.2446 60.9882 16.8269 60.9882 14.6696V5.67054C60.9882 1.97228 59.6624 1.72573 58.8187 1.72573C58.3968 1.72573 58.2763 1.23263 58.5174 0.986084H63.9411Z" fill="black"/>
<path d="M87.3832 18.3062C87.3832 19.3541 88.1063 19.6623 88.8898 19.6623C89.1911 19.6623 89.2514 20.0321 89.0706 20.1554H83.8878C83.707 20.0321 83.7673 19.6623 84.0686 19.6623C84.8521 19.6623 85.5752 19.3541 85.5752 18.3062V8.62916C85.5752 7.58132 84.8521 7.27313 84.0686 7.27313C83.7673 7.27313 83.707 6.9033 83.8878 6.78003H89.0706C89.2514 6.9033 89.1911 7.27313 88.8898 7.27313C88.1063 7.27313 87.3832 7.58132 87.3832 8.62916V18.3062Z" fill="black"/>
<path d="M92.2039 18.2446V8.62916C92.2039 7.58132 91.4807 7.27313 90.6973 7.27313C90.396 7.27313 90.3357 6.9033 90.5165 6.78003H96.6634C98.0495 6.78003 99.3753 6.96494 100.279 7.82787C100.822 8.3826 101.244 9.30717 101.244 10.5399C101.244 12.7589 99.7369 13.8683 97.6879 14.2382C98.1098 14.7313 98.5919 15.4093 99.1343 16.1489L100.4 17.8748C100.942 18.6144 101.846 19.4157 102.75 19.6623C103.112 19.7239 103.232 19.9088 103.172 20.1554H101.002C99.9177 20.1554 98.8932 18.9226 97.9893 17.6899C97.6879 17.32 97.3264 16.7653 96.9045 16.0873C96.4827 15.4093 96.0005 14.8545 95.639 14.2998H94.0118V18.2446C94.0118 19.2924 94.735 19.6006 95.5184 19.6006C95.8197 19.6006 95.88 19.9705 95.6992 20.0937H90.5165C90.3357 19.9705 90.396 19.6006 90.6973 19.6006C91.4205 19.6623 92.2039 19.3541 92.2039 18.2446ZM95.88 13.4985C96.784 13.4985 97.5071 13.252 98.17 12.8205C98.833 12.389 99.1343 11.5878 99.1343 10.5399C99.1343 8.44424 98.1098 7.3964 96.0608 7.3964H94.5542C93.9516 7.45804 93.9516 7.76623 93.9516 8.38261V8.44424V13.4985H95.88Z" fill="black"/>
<path d="M103.775 19.6623L111.791 7.45804H108.356C106.668 7.45804 105.644 8.44424 104.74 10.1701C104.258 10.2934 104.077 10.1085 104.197 9.61536L104.8 7.21149C104.86 6.9033 105.041 6.78003 105.282 6.78003H113.9C114.261 6.78003 114.382 6.96494 114.201 7.27313L106.186 19.4774H110.344C111.188 19.4774 111.911 19.1692 112.574 18.5528C113.237 17.9364 113.719 17.32 114.081 16.642C114.442 16.5188 114.744 16.7653 114.683 17.1351L114.02 19.4157C113.9 19.9088 113.418 20.1554 113.056 20.1554H104.137C103.775 20.1554 103.655 19.8472 103.775 19.6623Z" fill="black"/>
<path d="M115.165 19.6006C115.888 19.6006 116.672 18.9842 117.093 17.8747L121.191 6.96488C121.372 6.59506 121.854 6.47178 122.276 6.59506L126.615 18.1213C127.097 19.2308 127.579 19.6006 128.363 19.6622C128.664 19.6622 128.724 20.032 128.544 20.1553H123.421C123.24 20.032 123.301 19.6622 123.602 19.6622C124.687 19.6622 125.048 19.2308 124.747 18.3062L123.662 15.4092H119.022L118.178 17.9364C117.817 18.9226 118.299 19.6622 119.444 19.6622C119.745 19.6622 119.805 20.032 119.625 20.1553H114.924C114.743 19.9704 114.803 19.6006 115.165 19.6006ZM119.203 14.7312H123.361L121.131 8.87564L119.203 14.7312Z" fill="black"/>
<path d="M134.329 6.71826C134.51 6.84154 134.329 7.21136 134.028 7.21136C132.822 7.21136 132.159 7.58119 132.762 8.56739L135.715 13.6217L138.306 8.7523C138.789 7.7661 138.246 7.14972 137.041 7.21136C136.679 7.21136 136.559 6.84154 136.74 6.71826H141.621C141.802 6.84154 141.681 7.21136 141.32 7.21136C140.536 7.21136 139.873 7.70446 139.391 8.7523L136.197 14.238V18.2445C136.197 19.2923 136.92 19.6005 137.704 19.6005C138.005 19.6005 138.065 19.9703 137.885 20.0936H132.702C132.521 19.9703 132.581 19.6005 132.883 19.6005C133.666 19.6005 134.389 19.2923 134.389 18.2445V14.6695L130.834 8.7523C130.11 7.64282 129.749 7.273 129.026 7.21136C128.664 7.21136 128.604 6.84154 128.724 6.71826H134.329Z" fill="black"/>
<path d="M150.6 6.71826C151.745 6.71826 152.408 6.71826 152.468 6.7799L152.529 6.84154C152.77 7.33464 152.89 8.01265 152.95 8.99885C152.95 9.43031 152.83 9.61523 152.348 9.67686C151.805 8.01265 151.263 7.39627 149.877 7.39627H146.623C146.02 7.45791 146.02 7.7661 146.02 8.38248V8.44411V12.9437H148.792C149.335 12.9437 149.636 12.7587 149.817 12.5738C149.998 12.3889 150.239 11.8958 150.419 11.6493C150.781 11.2178 150.962 11.4027 150.962 11.5876V14.9777C150.962 15.1626 150.721 15.3475 150.419 14.9161C150.299 14.7311 150.058 14.2997 149.877 14.0531C149.696 13.8066 149.335 13.6217 148.792 13.6217H146.02V18.3678C146.02 18.9225 146.141 19.2307 146.321 19.354C146.502 19.4156 146.502 19.4156 146.743 19.4156H146.984H149.515C150.48 19.4156 151.203 19.169 151.745 18.7376C152.288 18.3061 152.77 17.5665 153.192 16.6419C153.553 16.6419 153.854 16.8885 153.794 17.2583C153.794 17.6281 153.674 18.1828 153.433 18.7992C153.192 19.4156 153.011 19.8471 152.83 19.9703C152.649 20.0936 151.866 20.1552 151.143 20.1552C150.721 20.1552 149.817 20.1552 149.455 20.1552H142.464C142.284 20.032 142.344 19.6621 142.645 19.6621C143.429 19.6621 144.152 19.354 144.152 18.3061V8.62903C144.152 7.58119 143.429 7.273 142.645 7.273C142.344 7.273 142.284 6.90317 142.464 6.7799H150.6V6.71826Z" fill="black"/>
<path d="M159.459 6.71826C159.64 6.84154 159.519 7.21136 159.158 7.21136C158.013 7.21136 157.531 7.64282 157.892 8.56739L161.749 17.9363L164.702 8.93721C165.064 7.88938 164.642 7.21136 163.497 7.21136C163.135 7.21136 163.075 6.84154 163.256 6.71826H167.956C168.137 6.84154 168.077 7.21136 167.715 7.21136C166.811 7.21136 166.329 7.70446 165.787 8.93721L161.809 19.8471C161.749 20.032 161.629 20.0936 161.508 20.0936H160.905C160.725 20.0936 160.604 19.9703 160.544 19.7238L156.084 8.7523C155.602 7.64282 155.18 7.273 154.397 7.21136C154.035 7.21136 153.975 6.84154 154.156 6.71826H159.459Z" fill="black"/>
<path d="M63.0363 34.8251C61.3489 32.976 60.5052 31.7432 60.5052 30.1407C60.5052 27.4286 62.3734 25.6411 65.1456 25.6411C66.4714 25.6411 67.4959 26.0109 68.3396 26.7506C69.1833 27.4902 69.6051 28.2915 69.6051 29.401C69.6051 30.4488 69.1833 31.435 68.3396 32.2363C67.4959 33.0376 66.5919 33.654 65.5674 33.9622C67.4356 35.9346 69.0627 38.0303 70.4488 40.3108C71.5336 38.7699 72.3773 37.229 72.9799 35.5648C73.221 34.8867 73.1607 34.3936 72.7388 34.0855C72.317 33.7773 71.8349 33.5924 71.2925 33.654C70.8707 33.654 70.7501 33.1609 70.9912 32.9143H76.5958C76.8368 33.0993 76.7766 33.654 76.2944 33.654C75.3905 33.654 74.6673 34.2704 74.1249 35.5648C73.1004 37.9686 72.0759 39.8794 71.0515 41.3587C72.2567 43.2078 73.0402 44.0707 73.9441 44.194C74.8481 44.2556 75.4507 43.8858 76.5958 42.7764C77.1381 43.0229 77.3189 43.516 76.7766 44.3173C76.0534 45.1186 74.4263 45.6117 72.2567 45.0569C71.172 44.7488 70.2077 44.1324 69.4243 43.2078C67.8574 44.7488 66.1098 45.4884 64.2416 45.4884C61.831 45.4884 58.3357 44.194 58.3357 40.619C58.4562 38.0303 59.9628 36.1811 63.0363 34.8251ZM66.8932 39.263C66.5316 38.8315 65.929 38.0919 65.6879 37.7221L65.0853 36.9824L64.5429 36.366C64.4826 36.2428 64.2416 36.0579 63.9403 35.7497L63.3979 35.1949C61.8913 36.7359 61.1078 38.2768 61.1078 40.0027C61.1078 42.5298 62.5542 44.194 64.784 44.194C66.2303 44.194 67.6164 43.516 68.8819 42.16L68.7614 41.9134C68.1588 40.9889 67.4356 40.0027 66.8932 39.263ZM63.3376 31.3118C63.6992 31.8665 64.3019 32.5445 65.1456 33.4074C66.5316 32.3596 67.1945 31.0036 67.074 29.401C67.0137 27.7984 66.0495 26.689 64.8442 26.689C63.6389 26.689 62.8555 27.6752 62.8555 29.401C62.8555 30.1407 63.0363 30.8187 63.3376 31.3118Z" fill="black"/>
<path d="M85.3942 42.4064V28.5996C85.3942 27.0587 84.3095 26.6272 83.2247 26.6889C82.8029 26.6889 82.6823 26.1958 82.9234 25.9492H91.7822C94.9762 25.9492 98.4113 27.3052 98.4113 31.8664C98.4113 33.9621 97.3868 35.6879 95.9405 36.7358C94.4941 37.6603 92.867 38.2151 91.3604 38.2151C90.2154 38.2151 89.0703 37.9685 87.9253 37.4754V42.4681C87.9253 43.9474 89.0101 44.3788 90.0948 44.3788C90.5167 44.3788 90.6372 44.8719 90.3962 45.1185H82.9837C82.7426 44.9336 82.8029 44.3788 83.285 44.3788C84.3697 44.3788 85.3942 43.8857 85.3942 42.4064ZM94.0723 35.503C95.0365 34.7017 95.5186 33.469 95.5186 31.9281C95.5186 30.2638 95.0968 28.9695 94.1928 28.1682C93.3491 27.3669 92.2644 26.9354 91.0591 26.9354H88.8293C87.9856 27.0587 87.9856 27.4902 87.9856 28.2914V28.4147V36.366C88.769 36.6125 89.7333 36.7358 90.8783 36.7358C92.0233 36.7358 93.1081 36.3043 94.0723 35.503Z" fill="black"/>
<path d="M97.9289 44.5637C98.6521 44.5637 99.4355 43.9473 99.8573 42.8379L103.955 31.928C104.136 31.5582 104.618 31.4349 105.04 31.5582L109.379 43.0844C109.861 44.1939 110.343 44.5637 111.127 44.6253C111.428 44.6253 111.488 44.9952 111.308 45.1184H106.185C106.004 44.9952 106.065 44.6253 106.366 44.6253C107.451 44.6253 107.812 44.1939 107.511 43.2693L106.426 40.3724H101.786L100.942 42.8995C100.581 43.8857 101.063 44.6253 102.208 44.6253C102.509 44.6253 102.569 44.9952 102.388 45.1184H97.6878C97.5673 44.8719 97.6276 44.5637 97.9289 44.5637ZM102.027 39.6327H106.185L103.955 33.7771L102.027 39.6327Z" fill="black"/>
<path d="M113.899 43.2079V33.5308C113.899 32.4829 113.176 32.1747 112.393 32.1747C112.092 32.1747 112.031 31.8049 112.212 31.6816H118.359C119.745 31.6816 121.071 31.8666 121.975 32.7295C122.517 33.2842 122.939 34.2088 122.939 35.4415C122.939 37.6605 121.432 38.77 119.383 39.1398C119.805 39.6329 120.287 40.3109 120.83 41.0505L122.095 42.7764C122.638 43.516 123.542 44.3173 124.446 44.5639C124.807 44.6255 124.928 44.8104 124.868 45.057H122.698C121.613 45.057 120.589 43.8242 119.685 42.5915C119.383 42.2217 119.022 41.6669 118.6 40.9889C118.178 40.3109 117.696 39.7562 117.335 39.2014H115.707V43.1462C115.707 44.1941 116.431 44.5022 117.214 44.5022C117.515 44.5022 117.576 44.8721 117.395 44.9953H112.212C112.031 44.8721 112.092 44.5022 112.393 44.5022C113.176 44.5639 113.899 44.2557 113.899 43.2079ZM117.636 38.4001C118.54 38.4001 119.263 38.1536 119.926 37.7221C120.589 37.2907 120.89 36.4894 120.89 35.4415C120.89 33.3459 119.866 32.298 117.817 32.298H116.31C115.707 32.3597 115.707 32.6678 115.707 33.2842V33.3459V38.4001H117.636Z" fill="black"/>
<path d="M125.168 31.7431C125.229 31.6815 125.59 31.6199 126.374 31.6199H127.097H134.449C135.594 31.6199 136.257 31.6199 136.317 31.6815L136.378 31.7431C136.619 32.1746 136.739 32.9759 136.799 34.0854C136.799 34.5785 136.619 34.825 136.197 34.7634C135.594 33.0375 135.112 32.2979 133.726 32.2979H132.701C131.978 32.3595 131.617 32.7293 131.617 33.4074V43.0845C131.617 44.1323 132.34 44.4405 133.123 44.4405C133.425 44.4405 133.485 44.8103 133.304 44.9336H128.121C127.941 44.8103 128.001 44.4405 128.302 44.4405C129.086 44.4405 129.809 44.1323 129.809 43.0845V33.5306C129.809 32.791 129.447 32.4212 128.724 32.3595H127.76C126.434 32.3595 125.952 33.0992 125.289 34.825C124.867 34.8867 124.686 34.6401 124.686 34.147C124.747 33.0375 124.927 32.2362 125.168 31.7431Z" fill="black"/>
<path d="M140.717 31.6816C140.958 31.6816 141.079 31.7433 141.199 31.9282L148.37 41.9135L148.31 35.5648C148.31 34.0855 148.069 33.0993 147.708 32.6678C147.346 32.298 147.165 32.2364 146.743 32.2364C146.442 32.2364 146.382 31.8666 146.563 31.7433H150.902C151.082 31.8666 151.022 32.2364 150.721 32.2364C150.359 32.2364 150.118 32.298 149.757 32.6678C149.395 33.0377 149.214 34.0855 149.214 35.5648V44.6872C149.214 44.9337 149.094 45.057 148.853 45.057C148.612 45.057 148.31 44.8721 148.009 44.4406L140.235 33.7157L140.295 41.2355C140.295 42.7148 140.536 43.701 140.837 44.1324C141.199 44.5022 141.44 44.5639 141.802 44.5639C142.103 44.5639 142.163 44.9337 141.982 45.057H137.643C137.463 44.9337 137.523 44.5639 137.824 44.5639C138.186 44.5639 138.427 44.5022 138.788 44.1324C139.15 43.7626 139.331 42.7148 139.331 41.2355V33.5308C139.331 32.4829 138.608 32.1747 137.824 32.1747C137.523 32.1747 137.463 31.8049 137.643 31.6816H140.717Z" fill="black"/>
<path d="M160.001 31.6816C161.146 31.6816 161.809 31.6816 161.869 31.7433L161.93 31.8049C162.171 32.298 162.291 32.976 162.351 33.9622C162.351 34.3937 162.231 34.5786 161.749 34.6402C161.206 32.976 160.664 32.3597 159.278 32.3597H156.084C155.481 32.4213 155.481 32.7295 155.481 33.3459V33.4075V37.8454H158.253C158.796 37.8454 159.097 37.6605 159.278 37.4756C159.459 37.2907 159.7 36.7976 159.881 36.551C160.242 36.1195 160.423 36.3045 160.423 36.4894V39.8794C160.423 40.0643 160.182 40.2493 159.881 39.8178C159.76 39.6329 159.519 39.2014 159.338 38.9549C159.157 38.7083 158.796 38.5234 158.253 38.5234H155.481V43.2695C155.481 43.8242 155.602 44.1324 155.783 44.2557C155.963 44.3173 155.963 44.3173 156.204 44.3173H156.445H158.977C159.941 44.3173 160.664 44.0708 161.206 43.6393C161.749 43.2079 162.231 42.4682 162.653 41.5436C163.014 41.5436 163.316 41.7902 163.255 42.16C163.255 42.5298 163.135 43.0846 162.894 43.701C162.653 44.3173 162.472 44.7488 162.291 44.8721C162.11 44.9953 161.327 45.057 160.604 45.057C160.182 45.057 159.278 45.057 158.916 45.057H151.926C151.745 44.9337 151.805 44.5639 152.106 44.5639C152.89 44.5639 153.613 44.2557 153.613 43.2079V33.5308C153.613 32.4829 152.89 32.1747 152.106 32.1747C151.805 32.1747 151.745 31.8049 151.926 31.6816H160.001Z" fill="black"/>
<path d="M166.269 43.2079V33.5308C166.269 32.4829 165.546 32.1747 164.762 32.1747C164.461 32.1747 164.401 31.8049 164.582 31.6816H170.729C172.115 31.6816 173.44 31.8666 174.344 32.7295C174.887 33.2842 175.309 34.2088 175.309 35.4415C175.309 37.6605 173.802 38.77 171.753 39.1398C172.175 39.6329 172.657 40.3109 173.199 41.0505L174.465 42.7764C175.007 43.516 175.911 44.3173 176.815 44.5639C177.177 44.6255 177.297 44.8104 177.237 45.057H175.068C173.983 45.057 172.958 43.8242 172.054 42.5915C171.753 42.2217 171.392 41.6669 170.97 40.9889C170.548 40.3109 170.066 39.7562 169.704 39.2014H168.077V43.1462C168.077 44.1941 168.8 44.5022 169.584 44.5022C169.885 44.5022 169.945 44.8721 169.764 44.9953H164.521C164.341 44.8721 164.401 44.5022 164.702 44.5022C165.546 44.5639 166.269 44.2557 166.269 43.2079ZM170.005 38.4001C170.909 38.4001 171.633 38.1536 172.295 37.7221C172.958 37.2907 173.26 36.4894 173.26 35.4415C173.26 33.3459 172.235 32.298 170.186 32.298H168.68C168.077 32.3597 168.077 32.6678 168.077 33.2842V33.3459V38.4001H170.005Z" fill="black"/>
<path d="M185.976 32.3596C186.157 32.6062 186.277 32.9144 186.337 33.4691C186.398 33.9622 186.458 34.4553 186.458 34.8251C186.458 35.1333 186.217 35.2566 186.096 35.1949C185.373 34.1471 184.831 33.4691 184.409 33.0993C183.806 32.5445 183.143 32.2363 182.481 32.2363C181.878 32.2363 181.336 32.4213 180.853 32.7911C180.371 33.1609 180.13 33.654 180.13 34.332C180.13 36.2428 182.601 37.229 184.59 38.4001C185.976 39.2014 187.061 40.3725 187.061 41.9751C187.061 42.8996 186.699 43.7009 185.855 44.3173C185.012 44.9337 183.927 45.2419 182.481 45.2419C180.673 45.2419 179.106 44.6871 178.322 43.9475C178.081 43.2695 177.961 42.3449 177.961 41.2354C177.961 40.9889 178.202 40.8656 178.443 40.8656C178.744 41.482 178.985 41.9751 179.226 42.2833C179.467 42.6531 179.708 42.9613 180.01 43.3311C180.673 44.1324 181.516 44.4406 182.601 44.4406C184.168 44.4406 185.313 43.6393 185.313 42.3449C185.313 39.0165 178.503 38.7083 178.503 34.8251C178.503 33.8389 178.925 33.0376 179.769 32.4213C180.673 31.8049 181.757 31.4351 183.023 31.4351C184.228 31.4351 185.253 31.7432 185.976 32.3596Z" fill="black"/>
<path d="M0 35.873V46.3514H36.3393V35.873H34.7725V44.7489H1.56687V35.873H0Z" fill="black"/>
<path d="M30.6142 38.3385H22.5388V25.8877C22.5388 23.4222 20.5501 21.3882 18.1395 21.3882C15.729 21.3882 13.7402 23.4222 13.7402 25.8877V40.0027H30.6142V38.3385ZM20.9719 38.3385H15.3071V25.8877C15.3071 24.2851 16.5727 22.9908 18.1395 22.9908C19.7064 22.9908 20.9719 24.2851 20.9719 25.8877V38.3385Z" fill="black"/>
<path d="M36.3393 30.4489H34.7725V30.5722C34.7725 32.1748 33.5069 33.4692 31.9401 33.4692C30.3732 33.4692 29.1076 32.1748 29.1076 30.5722V8.07448L18.923 14.2999V7.95121H21.8759V6.34863H14.4634V7.95121H17.4164V14.2999L17.2958 14.2382L7.23171 8.07448V30.5105C7.23171 32.1131 5.96616 33.4075 4.39929 33.4075C2.83242 33.4075 1.56687 32.1131 1.56687 30.5105V30.3873H0V30.5105C0 32.976 1.98872 35.0101 4.39929 35.0101C6.80986 35.0101 8.79858 32.976 8.79858 30.5105V10.9098L8.91911 10.9714L17.3561 16.149V19.4158H18.923V16.149H18.9832L27.4805 10.9098V30.5105C27.4805 32.976 29.4692 35.0101 31.8798 35.0101C34.2904 35.0101 36.2791 32.976 36.2791 30.5105V30.4489H36.3393Z" fill="black"/>
<path d="M36.3393 27.3671V0H0V27.3671H1.56687V1.60258H34.7725V27.3671H36.3393Z" fill="black"/>
<path d="M11.872 38.3386H5.66479V39.9412H11.872V38.3386Z" fill="black"/>
</svg>
