<svg width="41" height="40" viewBox="0 0 41 40" fill="none" xmlns="http://www.w3.org/2000/svg">
<g clip-path="url(#clip0_617_1551)">
<path d="M38.8266 24.8602H33.5914V23.5766C33.5914 22.7383 32.9102 22.057 32.0727 22.057H29.7188C28.4203 20.4352 26.4258 19.4039 24.2406 19.4039C22.775 19.4039 20.8781 19.1289 20.0227 17.8422V17.0414C21.2422 16.0531 22.0961 14.632 22.3453 13.0133H22.618C23.5039 13.0133 24.225 12.293 24.225 11.407V9.46484C24.225 8.80156 23.8195 8.23125 23.243 7.9875V6.77891C23.243 4.98984 22.3992 3.29531 20.9758 2.20156C20.4977 0.740625 19.3188 0 17.4688 0H14.4531C11.2695 0 8.67969 2.58828 8.67969 5.76953V7.98828C8.10312 8.23203 7.69766 8.80234 7.69766 9.46563V11.4078C7.69766 12.293 8.41875 13.0141 9.30469 13.0141H9.57734C9.82578 14.6336 10.6813 16.0555 11.9016 17.0438V17.843C11.0445 19.1297 9.14766 19.4047 7.68203 19.4047C3.81875 19.4047 0.675781 22.5453 0.675781 26.4055V33.6117C0.675781 33.957 0.955469 34.2367 1.30078 34.2367H20.082V38.5055C20.082 39.3297 20.7531 40.0008 21.5781 40.0008H38.8266C39.6531 40.0008 40.325 39.3297 40.325 38.5055V26.3555C40.325 25.5312 39.6523 24.8602 38.8266 24.8602ZM39.075 26.3555V30.2914C36.9625 30.8055 34.5445 31.1273 32.0187 31.232V30.207C32.0187 29.6539 31.568 29.2031 31.0148 29.2031H29.3914C28.8367 29.2031 28.3852 29.6531 28.3852 30.207V31.232C25.8602 31.1273 23.4438 30.8055 21.3313 30.2914V26.3555C21.3313 26.2227 21.4438 26.1102 21.5773 26.1102H38.8258C38.9609 26.1102 39.075 26.2227 39.075 26.3555ZM30.7687 30.4531V32.7711C30.7687 33.0766 30.5094 33.3352 30.2031 33.3352C29.8898 33.3352 29.6352 33.082 29.6352 32.7711V30.4531H30.7687ZM28.3336 23.307H29.0828C29.3898 23.7812 29.6289 24.3031 29.7859 24.8609H28.0633V23.5773C28.0633 23.4305 28.1867 23.307 28.3336 23.307ZM32.0727 23.307C32.218 23.307 32.3414 23.4305 32.3414 23.5766V24.8602H31.075C30.9508 24.3148 30.7633 23.7938 30.5203 23.3063H32.0727V23.307ZM15.9609 20.0484L13.4523 17.975C14.2242 18.3008 15.0719 18.4813 15.9609 18.4813C16.8516 18.4813 17.7 18.3 18.4727 17.9734L15.9609 20.0484ZM12.6422 18.9273L14.9539 20.8383L13.1828 22.1797L11.907 19.5797C12.1836 19.3867 12.4305 19.1703 12.6422 18.9273ZM15.9609 22.9094C15.5617 22.9094 15.2125 22.6766 15.0492 22.3344L15.9609 21.643L16.8742 22.3344C16.7109 22.6773 16.3617 22.9094 15.9609 22.9094ZM16.968 20.8383L19.2812 18.9273C19.493 19.1703 19.7391 19.3867 20.0148 19.5789L18.7391 22.1797L16.968 20.8383ZM22.975 11.4078C22.975 11.6039 22.8148 11.7641 22.618 11.7641H22.4203V9.11172H22.618C22.8148 9.11172 22.975 9.27031 22.975 9.46563V11.4078ZM14.4531 1.25H17.4688C19.1992 1.25 19.6344 2.00391 19.832 2.74219C19.8695 2.88281 19.9555 3.00625 20.0742 3.09063C21.2758 3.94297 21.993 5.32188 21.993 6.77969V6.86562H21.7953C20.0484 6.86562 18.95 6.25469 18.1234 4.82422C18.0391 4.67891 17.9008 4.57344 17.7383 4.53125C17.5758 4.48906 17.4031 4.51484 17.2594 4.60156C15.0102 5.96016 12.9367 6.86562 10.1297 6.86562H9.92969V5.76953C9.92969 3.27734 11.9586 1.25 14.4531 1.25ZM8.94766 11.4078V9.46563C8.94766 9.27344 9.11094 9.11172 9.30469 9.11172H9.50234V11.7641H9.30469C9.11094 11.7641 8.94766 11.6008 8.94766 11.4078ZM10.7523 12.032V8.10156C12.9797 8.00313 14.9742 7.36406 17.3805 5.98047C18.2977 7.275 19.5234 7.95625 21.1695 8.08984V12.032C21.1695 14.8992 18.8328 17.2313 15.9609 17.2313C13.0891 17.2313 10.7523 14.8992 10.7523 12.032ZM1.925 26.4047C1.925 23.2336 4.50703 20.6539 7.68125 20.6539C8.89141 20.6539 9.93516 20.4844 10.7984 20.157L12.3953 23.4109C12.4773 23.5789 12.6305 23.7008 12.8117 23.7438C12.8594 23.7555 12.9078 23.7609 12.9563 23.7609C13.0914 23.7609 13.2242 23.7172 13.3336 23.6344L14.043 23.0969C14.2266 23.3906 14.475 23.6375 14.768 23.8195L12.9234 32.9859H7.29766V29.7812C7.29766 29.4359 7.01797 29.1562 6.67266 29.1562C6.32734 29.1562 6.04766 29.4359 6.04766 29.7812V32.9852H1.925V26.4047ZM15.9625 24.2227L17.7242 32.9859H14.1992L15.9625 24.2227ZM18.9984 32.9859L17.1562 23.8188C17.4484 23.6367 17.6969 23.3906 17.8805 23.0969L18.5883 23.6336C18.6977 23.7164 18.8305 23.7602 18.9656 23.7602C19.0141 23.7602 19.0625 23.7547 19.1102 23.743C19.2914 23.7 19.4445 23.5781 19.5266 23.4102L21.1234 20.1555C21.9859 20.4828 23.0305 20.6523 24.2406 20.6523C25.6727 20.6523 27.0055 21.1914 28.0281 22.0859C27.3352 22.2273 26.8133 22.8414 26.8133 23.575V24.8586H21.5781C20.7531 24.8586 20.082 25.5297 20.082 26.3539V32.9836H18.9984V32.9859ZM38.8266 38.75H21.5773C21.4438 38.75 21.3313 38.6375 21.3313 38.5047V31.575C23.4656 32.0711 25.8766 32.3812 28.3852 32.4828V32.7711C28.3852 33.7711 29.2008 34.5852 30.2031 34.5852C31.2047 34.5852 32.0187 33.7711 32.0187 32.7711V32.4828C34.5281 32.382 36.9398 32.0711 39.075 31.575V38.5047C39.075 38.6375 38.9609 38.75 38.8266 38.75Z" fill="#D09E5F"/>
</g>
<defs>
<clipPath id="clip0_617_1551">
<rect width="40" height="40" fill="white" transform="translate(0.5)"/>
</clipPath>
</defs>
</svg>
