<svg width="41" height="40" viewBox="0 0 41 40" fill="none" xmlns="http://www.w3.org/2000/svg">
<path d="M28.3002 21.2463C27.2324 20.7907 25.9954 21.0901 25.2598 21.9884L23.0982 24.6312C20.1034 22.8932 17.6033 20.3936 15.865 17.3993L18.5018 15.2448C19.4002 14.5092 19.7062 13.2724 19.244 12.2049L16.1189 4.91452C15.6306 3.76889 14.4001 3.13098 13.1827 3.39135L5.89083 4.95358C4.69289 5.20744 3.8335 6.26845 3.8335 7.49871C3.8335 22.5482 15.24 34.9419 29.8822 36.4976C30.5203 36.5627 31.1583 36.6148 31.8094 36.6408H31.8159C32.213 36.6538 32.6037 36.6668 33.0008 36.6668C34.2313 36.6668 35.2925 35.8076 35.5464 34.6099L37.109 27.3195C37.3694 26.1023 36.7314 24.872 35.5855 24.3838L28.2937 21.2593L28.3002 21.2463ZM32.5776 33.5359C18.5343 33.308 7.18643 21.9623 6.96508 7.92181L13.4236 6.53533L16.2231 13.0707L13.8858 14.9844C12.7009 15.9543 12.3949 17.6402 13.1631 18.9681C15.1749 22.4375 18.0656 25.3277 21.5357 27.339C22.8639 28.1071 24.5501 27.8012 25.5202 26.6165L27.4343 24.2797L33.9709 27.0786L32.5776 33.5359Z" fill="#D09E5F"/>
</svg>
