<svg width="13" height="13" viewBox="0 0 13 13" fill="none" xmlns="http://www.w3.org/2000/svg">
<g clip-path="url(#clip0_892_954)">
<path d="M4 3.32812H10.6667V7.57812H10.0208L8.23785 4.97002L7.88889 4.45869L7.53993 4.96836L6.63368 6.29316L6.4184 6.0126L6.08333 5.57598L5.74653 6.01426L4.54861 7.57812H4V3.32812ZM3.16667 2.53125V3.32812V7.57812V8.375H4H10.6667H11.5V7.57812V3.32812V2.53125H10.6667H4H3.16667ZM2.33333 3.99219V3.59375H1.5V3.99219V9.57031V9.96875H1.91667H9.41667H9.83333V9.17188H9.41667H2.33333V3.99219ZM5.94444 4.39062C5.94444 4.24973 5.88591 4.1146 5.78173 4.01497C5.67754 3.91535 5.53623 3.85938 5.38889 3.85938C5.24155 3.85938 5.10024 3.91535 4.99605 4.01497C4.89187 4.1146 4.83333 4.24973 4.83333 4.39062C4.83333 4.53152 4.89187 4.66665 4.99605 4.76628C5.10024 4.8659 5.24155 4.92188 5.38889 4.92188C5.53623 4.92188 5.67754 4.8659 5.78173 4.76628C5.88591 4.66665 5.94444 4.53152 5.94444 4.39062Z" fill="white"/>
</g>
<defs>
<clipPath id="clip0_892_954">
<rect width="10" height="8.5" fill="white" transform="translate(1.5 2)"/>
</clipPath>
</defs>
</svg>
