<svg width="30" height="21" viewBox="0 0 30 21" fill="none" xmlns="http://www.w3.org/2000/svg">
<path fill-rule="evenodd" clip-rule="evenodd" d="M1.27724 19.673V21L1.27576 21.0014C4.82111 20.6205 7.85258 19.1612 10.3702 16.6209C12.8892 14.0791 14.148 11.2066 14.148 8.00062C14.148 5.72479 13.5231 3.82276 12.2761 2.29308C11.0292 0.764839 9.44903 0 7.58305 0C5.71708 0 4.14877 0.602382 2.87813 1.80283C1.60749 3.00329 0.972168 4.49127 0.972168 6.26248C0.972168 7.86548 1.45791 9.21832 2.42941 10.3268C3.40386 11.4338 4.58713 11.9873 5.98364 11.9873C6.84555 11.9873 7.79483 11.6595 8.83 11.0068C7.87332 14.5061 5.35721 17.3943 1.27724 19.673ZM16.8346 19.6731V21L16.8361 21.0029C20.3799 20.6219 23.4144 19.1627 25.9408 16.6223C28.4673 14.0805 29.7291 11.2081 29.7291 8.00208C29.7291 5.72625 29.1026 3.82422 27.8468 2.29454C26.5924 0.766304 25.0301 0.00146484 23.1641 0.00146484C21.2981 0.00146484 19.7239 0.603847 18.4458 1.8043C17.1678 3.00475 16.528 4.49274 16.528 6.26394C16.528 7.8655 17.0152 9.21978 17.9867 10.3268C18.9582 11.4338 20.1504 11.9873 21.5632 11.9873C22.4103 11.9873 23.3507 11.6595 24.3858 11.0068C23.4306 14.5061 20.9131 17.3944 16.8346 19.6731Z" fill="#8A8D8A"/>
</svg>
