<svg id="svg4408" height="600" width="900" xmlns="http://www.w3.org/2000/svg" xmlns:xlink="http://www.w3.org/1999/xlink" xmlns:cc="http://creativecommons.org/ns#" xmlns:dc="http://purl.org/dc/elements/1.1/" xmlns:inkscape="http://www.inkscape.org/namespaces/inkscape" xmlns:rdf="http://www.w3.org/1999/02/22-rdf-syntax-ns#" xmlns:sodipodi="http://sodipodi.sourceforge.net/DTD/sodipodi-0.dtd" xmlns:svg="http://www.w3.org/2000/svg"><clipPath id="clipPath3146"><path id="path3148" d="m-479.99183 20.215956a156.8 156.8 0 0 1 157.9935-155.193176 156.8 156.8 0 0 1 155.59627 157.596526 156.8 156.8 0 0 1 -157.19852 155.998364 156.8 156.8 0 0 1 -156.39944-156.799497" transform="matrix(1.499 0 0 1.499 740.133 -223.272)"/></clipPath><clipPath id="clipPath3361"><path id="path3363" d="m54.400003-454.31722h403.199997c21.27359 0 38.4 25.6896 38.4 57.6v364.799977c0 31.9103998-17.12641 57.6-38.4 57.6h-403.199997c-21.2736 0-38.4-25.6896002-38.4-57.6v-364.799977c0-31.9104 17.1264-57.6 38.4-57.6z"/></clipPath><g id="layer1" transform="translate(0 536)"><g id="g7379" clip-path="url(#clipPath3361)" transform="matrix(1.875 0 0 1.25 -30 31.897)"><path id="rect3220" d="m-25.683-496h160v480h-160z" fill="#e74c3c" transform="matrix(0 -1 -1 0 0 0)"/><path id="rect3990" d="m134.317-496h160v480h-160z" fill="#2b4896" transform="matrix(0 -1 -1 0 0 0)"/><path id="rect3992" d="m294.317-496h160v480h-160z" fill="#fff" transform="matrix(0 -1 -1 0 0 0)"/></g></g></svg>