<svg width="200" height="200" viewBox="0 0 200 200" fill="none" xmlns="http://www.w3.org/2000/svg">
<path d="M100 200L96.2561 138.013L80.491 198.079L88.9121 136.552L61.7317 192.388L81.9943 133.686L44.443 183.147L75.7683 129.526L29.2893 170.711L70.4736 124.232L16.853 155.557L66.3136 118.006L7.61205 138.268L63.4481 111.088L1.92149 119.509L61.9873 103.744L8.74228e-06 100L61.9873 96.2561L1.92149 80.4909L63.4481 88.9121L7.61206 61.7316L66.3136 81.9942L16.853 44.443L70.4736 75.7683L29.2893 29.2893L75.7683 70.4736L44.443 16.853L81.9943 66.3136L61.7317 7.61203L88.9121 63.4481L80.491 1.92147L96.2561 61.9873L100 -8.74228e-06L103.744 61.9873L119.509 1.92147L111.088 63.4481L138.268 7.61204L118.006 66.3136L155.557 16.853L124.232 70.4736L170.711 29.2893L129.526 75.7683L183.147 44.443L133.686 81.9942L192.388 61.7317L136.552 88.9121L198.079 80.491L138.013 96.2561L200 100L138.013 103.744L198.079 119.509L136.552 111.088L192.388 138.268L133.686 118.006L183.147 155.557L129.526 124.232L170.711 170.711L124.232 129.526L155.557 183.147L118.006 133.686L138.268 192.388L111.088 136.552L119.509 198.079L103.744 138.013L100 200Z" fill="#ECE8D9"/>
</svg>
