<svg width="123" height="132" viewBox="0 0 123 132" fill="none" xmlns="http://www.w3.org/2000/svg">
<path d="M100 -68L103.744 -6.01268L119.509 -66.0785L111.088 -4.55187L138.268 -60.388L118.006 -1.6864L155.557 -51.147L124.232 2.47363L170.711 -38.7107L129.526 7.76833L183.147 -23.557L133.686 13.9942L192.388 -6.26834L136.552 20.9121L198.079 12.491L138.013 28.2561L200 32L138.013 35.7439L198.079 51.509L136.552 43.0879L192.388 70.2683L133.686 50.0058L183.147 87.557L129.526 56.2317L170.711 102.711L124.232 61.5264L155.557 115.147L118.006 65.6864L138.268 124.388L111.088 68.5519L119.509 130.079L103.744 70.0127L100 132L96.2561 70.0127L80.491 130.079L88.9121 68.5519L61.7317 124.388L81.9942 65.6864L44.443 115.147L75.7683 61.5264L29.2893 102.711L70.4736 56.2317L16.853 87.557L66.3136 50.0058L7.61205 70.2683L63.4481 43.0879L1.92147 51.509L61.9873 35.7439L0 32L61.9873 28.2561L1.92147 12.491L63.4481 20.9121L7.61205 -6.26834L66.3136 13.9942L16.853 -23.557L70.4736 7.76833L29.2893 -38.7107L75.7683 2.47363L44.443 -51.147L81.9942 -1.6864L61.7317 -60.388L88.9121 -4.55187L80.491 -66.0785L96.2561 -6.01268L100 -68Z" fill="#ECE8D9"/>
</svg>
